<svg width="64" height="64" viewBox="0 0 64 64" fill="none" xmlns="http://www.w3.org/2000/svg">
<path d="M34.6666 40C28.5554 56 11.4444 40 5.33325 56" stroke="white" stroke-width="3.875" stroke-linecap="round" stroke-linejoin="round"/>
<path d="M41.3333 40H45.3368C51.6221 40 54.7648 40 56.7176 38.0475C58.6701 36.0947 58.6701 32.952 58.6701 26.6667V21.3333C58.6701 15.0479 58.6701 11.9053 56.7176 9.95261C54.7648 8 51.6221 8 45.3368 8H34.6701C28.3848 8 25.242 8 23.2894 9.95261C21.635 11.607 21.3823 14.1158 21.3438 18.6667" stroke="white" stroke-width="3.875" stroke-linecap="round" stroke-linejoin="round"/>
<path d="M19.9999 39.9998C23.6818 39.9998 26.6666 37.0151 26.6666 33.3332C26.6666 29.6513 23.6818 26.6665 19.9999 26.6665C16.318 26.6665 13.3333 29.6513 13.3333 33.3332C13.3333 37.0151 16.318 39.9998 19.9999 39.9998Z" stroke="white" stroke-width="3.875" stroke-linecap="round" stroke-linejoin="round"/>
<path d="M32 18.6665H48M48 29.3332H40" stroke="white" stroke-width="3.875" stroke-linecap="round" stroke-linejoin="round"/>
</svg>
